# xmcd
#
# Track frame offsets:
#	150
#	15176
#	35927
#	59638
#	76464
#	102865
#	124205
#	142779
#	163463
#	189796
#	210178
#	232620
#
# Disc length: 3373 seconds
#
# Revision: 1
# Processed by: cddbd v1.5.2PL0 Copyright (c) Steve Scherf et al.
# Submitted via: audiograbber 1.83.01
#
DISCID=930d2b0c
DTITLE=Lillian Boutté - You´ve gotta love Lil
DYEAR=2002
DGENRE=Blues
TTITLE0=But beautiful
TTITLE1=Funny, but still love you
TTITLE2=If I could be with you
TTITLE3=Just for a thrill
TTITLE4=Laissez faire
TTITLE5=Laughing on the outside, crying on the inside
TTITLE6=Love letters
TTITLE7=Music is my life
TTITLE8=St. Louis Blues
TTITLE9=Stars fell on Alabama
TTITLE10=The nearness of you
TTITLE11=´tis Autumn
EXTD=
EXTT0=
EXTT1=
EXTT2=
EXTT3=
EXTT4=
EXTT5=
EXTT6=
EXTT7=
EXTT8=
EXTT9=
EXTT10=
EXTT11=
PLAYORDER=
